<svg width="192" height="70" xmlns="http://www.w3.org/2000/svg"><g fill="none" fill-rule="evenodd"><path d="M115.946 58.773h.006-.006M38.339 28.39a.56.56 0 00.002.026 8.033 8.033 0 00-5.843-.689 134.726 134.726 0 01-11.85 2.514l-.04-.764c-.054-1.027-.111-2.11-.177-3.228 6.219-.905 13.476-2.011 19.351-3.044a8.056 8.056 0 00-1.443 5.185m-1.772 15.061a8.137 8.137 0 002.283-.98c.037 1.026.076 2.033.115 2.997-10.607 2.99-14.042 1.527-14.888.954a2.479 2.479 0 01-.292-.232c3.627-.613 7.965-1.49 12.782-2.739m42.295 10.744c.032.014.064.029.097.042-.06.022-.121.043-.179.066l.082-.108m7.841-20.373c.296.776.605 1.548.927 2.314-.87 1.77-1.76 2.608-2.268 2.931-.115-.324-.228-.854-.211-1.609.05-2.258.984-3.29 1.552-3.636m105.092-12.241c-1.428-6.241-6.92-10.762-13.996-11.516-5.987-.636-13.386 1.64-17.13 8.039a8.097 8.097 0 00-5.805-3.192 8.092 8.092 0 00-8.71 7.02 120.29 120.29 0 00-.426 3.586c-.39 1.713-1.058 3.304-1.812 4.662.057-2.105.298-4.892.884-8.54.71-4.422-2.305-8.598-6.726-9.31-3.84-.616-7.495 1.587-8.85 5.078a12.346 12.346 0 00-4.502-3.438c-5.06-2.274-11.53-1.184-16.486 2.778-.071.058-.14.117-.212.175.14-5.52-1-9.66-3.487-12.64-2.535-3.037-6.202-4.543-10.31-4.246-4.553.32-8.252 2.975-10.15 7.288-1.358 3.09-1.533 6.987-1.218 10.66-.028.006-.056.014-.083.021-5.211 1.397-9.374 5.087-11.731 10.012-2.22-4.157-5.978-6.314-10.61-6.07l-.168.008c-2.298.148-4.462.945-6.509 2.406-1.377-2.866-4.39-4.787-7.728-4.618h-.01a8.106 8.106 0 001.392-6.161c-.79-4.4-5.012-7.343-9.422-6.558-8.46 1.52-20.565 3.264-27.15 4.185l-.539.07-.03.01c-1.937.27-3.145.433-3.24.446a8.06 8.06 0 00-5.369 3.126 8.074 8.074 0 00-1.588 6.01c.353 2.614 1.952 4.803 4.132 6.015.068 1.107.129 2.246.191 3.44.087 1.655.19 3.619.334 5.579a8.063 8.063 0 00-.818 3.964 8.058 8.058 0 001.957 4.893c1.016 4.911 3.192 11.102 9.106 15.11 3.634 2.461 8.009 3.668 13.33 3.668.644 0 1.302-.018 1.973-.053 4.315-.226 9.235-1.19 14.993-2.943a8.516 8.516 0 002.75.318c3.343-.175 7.03-2.487 7.73-7.255.281-1.906 1.496-5.251 2.906-8.413 1.468 5.087 4.589 10.751 12.154 12.194a8.07 8.07 0 004.428-.417c-.43.57-.789 1.2-1.062 1.881a8.077 8.077 0 00.07 6.218C75.561 68.15 78.563 70 81.722 70a8.113 8.113 0 003.198-.658c2.248-.961 4.718-1.872 7.546-2.784a113.851 113.851 0 017.932-2.234 97.38 97.38 0 018.018-1.605c2.849-.437 5.395-.684 7.777-.753h.02l.123-.003c3.468-.104 6.33-2.902 6.513-6.373a6.76 6.76 0 00-.211-2.067c4.04-.939 7.726-3.123 10.377-6.107.325.298.664.58 1.02.845 3.802 2.827 8.656 3.15 13.317.887a17.218 17.218 0 001.589-.88c.372.457.773.88 1.204 1.265a8.072 8.072 0 005.85 2.062 8.047 8.047 0 004.577-1.716c2.358 2.069 5.883 3.978 11.023 4.393a23.784 23.784 0 003.053.047c6.859-.36 12.252-4.011 14.428-9.769 1.773-4.694 1.052-9.985-1.622-13.864 3.306-1.62 5.195-5.363 4.34-9.105" fill="#323E48"/><path d="M72.85 46.256c-2.98-.568-3.674-3.767-4.465-8.97-.65-4.286-1.63-10.75-7.713-10.432l-.104.006c-3.786.243-7.326 3.787-10.804 10.827l-.074-2.228c-.128-3.806-.23-6.813-.31-8.021a2.987 2.987 0 10-5.958.394c.073 1.112.177 4.223.297 7.827.125 3.726.266 7.95.417 11.288.035.768.068 1.437.101 2.048-11.269 3.706-19.039 4.204-23.086 1.464-2.507-1.698-3.814-4.759-4.568-8.642 4.078-.478 10.665-1.483 18.657-3.555a2.987 2.987 0 002.142-3.64 2.985 2.985 0 00-3.64-2.144c-7.671 1.989-14.05 2.951-17.917 3.405-.164-2.021-.278-4.152-.393-6.358-.136-2.585-.276-5.234-.513-7.901 6.726-.954 17.327-2.51 24.993-3.888a2.989 2.989 0 00-1.055-5.882c-8.74 1.57-21.382 3.382-27.542 4.243h-.014c-.007 0-.013.004-.02.004a857.45 857.45 0 01-3.619.5 2.988 2.988 0 00.8 5.922l.531-.072c.212 2.471.346 4.958.473 7.387.13 2.463.26 4.89.47 7.234-.62.58-1 1.409-.954 2.323a2.978 2.978 0 001.551 2.462c.96 5.72 2.879 10.576 7.27 13.55 3.087 2.092 7.077 3.007 12.163 2.74 4.366-.228 9.552-1.34 15.652-3.317.426.384 1.003.647 1.8.692.095.005.195.006.3 0 1.054-.055 2.605-.7 2.925-2.877.763-5.18 7.078-19.614 10.309-19.821l.02-.002c.09-.004.142.003.153-.004.625.556 1.081 3.563 1.355 5.365.758 4.995 1.904 12.544 9.251 13.944a2.993 2.993 0 003.493-2.377 2.989 2.989 0 00-2.375-3.494M80.364 36.908c.11-4.877 2.886-7.788 5.59-8.509a5.88 5.88 0 011.216-.195c1.33-.07 2.615.336 3.783 1.178a66.093 66.093 0 002.506 6.269c-2.172 6.143-5.821 8.556-8.728 8.162-2.697-.368-4.452-3.142-4.367-6.905m14.12-25.257c.283-.641.504-.656.76-.674a5.49 5.49 0 00.064-.004c.674-.035.835.157.943.286.829.99 1.7 4.154-.28 14.176-1.872-5.991-2.554-11.37-1.487-13.784M83.928 49.666c.63.086 1.273.113 1.927.079 3.876-.203 8.058-2.56 11.077-7.592a50.762 50.762 0 003.509 5.013 2.972 2.972 0 004.165.475 2.946 2.946 0 00.477-4.15c-1.937-2.429-3.711-5.349-5.246-8.436.023-.086.045-.171.066-.257 3.953-15.454 4.213-23.37.9-27.325-1.015-1.21-2.886-2.612-5.973-2.39-2.61.183-4.66 1.67-5.773 4.187-1.235 2.797-1.187 7.596-.035 13.126a11.63 11.63 0 00-4.603.296c-5.817 1.553-9.829 7.213-9.983 14.085-.152 6.806 3.75 12.107 9.492 12.889" fill="#FEFEFE"/><path d="M114.836 25.273c1.258-1.011 2.597-1.482 3.666-1.539.529-.028.991.046 1.344.207.244.11.812.366.878 1.628.08 1.531-.445 2.873-1.605 4.1-1.92 2.034-5.1 3.3-7.694 3.92-.129-4.858 2.244-7.375 3.411-8.316m14.507 11.705a2.979 2.979 0 00-3.952 1.504c-1.205 2.688-5.023 4.735-8.169 4.374-1.993-.226-3.494-1.36-4.484-3.382 3.583-.836 7.829-2.604 10.711-5.657 2.286-2.422 3.408-5.383 3.242-8.563-.163-3.133-1.765-5.613-4.396-6.803-3.325-1.505-7.717-.673-11.188 2.12-4.163 3.352-6.13 8.583-5.568 14.601a3.013 3.013 0 00-.656 1.784 3.015 3.015 0 001.544 2.738c1.656 5.297 5.264 8.59 10.126 9.143.695.078 1.395.098 2.096.06 5.1-.27 10.19-3.482 12.187-7.938a3.019 3.019 0 00-1.493-3.98M156.356 27.438c.26-1.333.421-2.7.46-4.083a2.94 2.94 0 00-2.702-3.016 2.93 2.93 0 00-3.15 2.544c-.17 1.27-.313 2.491-.431 3.662-1.278 6.06-5.257 11.218-8.17 12.632-.834.404-1.448.467-1.82.19-.352-.262-3.362-2.996-.911-18.246a2.941 2.941 0 00-2.435-3.372 2.935 2.935 0 00-3.37 2.437c-2.079 12.932-1.03 20.75 3.207 23.903 2.213 1.646 5.015 1.781 7.896.382 1.898-.921 3.869-2.575 5.647-4.742.49 2.771 1.384 4.745 2.679 5.904a2.947 2.947 0 004.16-.225 2.935 2.935 0 00-.225-4.147c-.594-.64-1.747-4.327-.835-13.823M186.85 22.726c-.933-4.088-4.54-6.95-9.414-7.47-4.51-.48-10.116 1.296-12.472 6.35-1.077 2.31-1.241 4.43-.49 6.297 1.305 3.236 4.824 4.59 8.227 5.899 1.947.75 3.96 1.523 5.344 2.56.862.647 1.406 2.473.807 4.059-.968 2.567-4.253 2.699-6.128 2.546-2.31-.186-4.021-.921-5.09-2.186-.815-.964-1.01-1.964-1.034-2.348a2.956 2.956 0 00-1.212-3.504 2.944 2.944 0 00-4.061.94c-1.112 1.782-.587 4.618.428 6.638 1.075 2.14 3.867 5.813 10.495 6.349.81.065 1.591.076 2.345.037 4.75-.25 8.322-2.543 9.772-6.384 1.472-3.904.273-8.579-2.79-10.876-2.04-1.53-4.55-2.495-6.764-3.346-1.803-.694-4.528-1.742-4.872-2.596-.084-.208-.032-.734.364-1.586 1.12-2.4 4.153-3.227 6.507-2.974 1.798.191 3.868 1.057 4.293 2.913a2.938 2.938 0 003.53 2.22 2.954 2.954 0 002.215-3.538M116.063 54.057c-3.01-.154-6.01-.076-8.99.135-2.983.215-5.946.568-8.892 1.025a125.898 125.898 0 00-8.783 1.689c-2.912.672-5.8 1.435-8.706 2.386-.072.024-.15.052-.221.082-1.514.629-2.216 2.333-1.57 3.805.647 1.473 2.399 2.156 3.912 1.527l.018-.008c2.56-1.064 5.254-2.01 7.973-2.861a120.576 120.576 0 018.274-2.265 104.176 104.176 0 018.426-1.638c2.826-.422 5.67-.715 8.51-.789h.013c.819-.024 1.495-.654 1.54-1.464.045-.852-.628-1.58-1.504-1.624" fill="#FEFEFE"/></g></svg>