<svg width="36" height="36" fill="none" xmlns="http://www.w3.org/2000/svg"><path fill-rule="evenodd" clip-rule="evenodd" d="M0 34a2 2 0 002 2h32a2 2 0 002-2V2a2 2 0 00-2-2H2a2 2 0 00-2 2v32z" fill="#FFCE01"/><path fill-rule="evenodd" clip-rule="evenodd" d="M11.204 9.421h.008-.008zM22.51 19.586l-.01.002.01-.002zm-3.248 12.31c-2.546 0-4.64-.579-6.378-1.758-2.82-1.911-3.855-4.858-4.338-7.195a3.835 3.835 0 01-.541-4.203 125.73 125.73 0 01-.159-2.659c-.03-.567-.058-1.108-.09-1.636a3.886 3.886 0 01-1.965-2.862c-.285-2.116 1.218-4.07 3.349-4.358a441.522 441.522 0 001.777-.246c3.126-.437 8.909-1.27 12.932-1.994a3.912 3.912 0 012.924.63 3.849 3.849 0 011.623 2.507c.377 2.1-1.037 4.116-3.152 4.497-2.858.514-6.538 1.076-9.672 1.534.031.53.058 1.041.083 1.527l.018.335a63.91 63.91 0 005.56-1.183 3.906 3.906 0 012.96.403 3.858 3.858 0 011.816 2.387c.535 2.061-.72 4.178-2.799 4.716a72.507 72.507 0 01-6.04 1.297c.041.036.083.07.126.098.442.3 2.377 1.116 8.692-.962.121-.04.246-.07.37-.091.265-.055.522-.082.78-.082 2.164 0 3.925 1.738 3.925 3.874 0 1.684-1.111 3.172-2.726 3.683a2.595 2.595 0 01-.051.018c-3.15 1.022-5.793 1.577-8.081 1.697-.321.017-.635.025-.943.025z" fill="#333F48"/><path fill-rule="evenodd" clip-rule="evenodd" d="M28.571 26.472a1.425 1.425 0 00-1.796-1.365v-.004c-5.351 1.761-8.97 1.959-10.891.656-1.191-.808-1.812-2.262-2.17-4.109a66.792 66.792 0 008.863-1.69 1.42 1.42 0 00-.712-2.75 64.216 64.216 0 01-8.511 1.618c-.078-.96-.132-1.973-.187-3.022a104.178 104.178 0 00-.244-3.757c3.195-.454 8.231-1.194 11.873-1.849a1.421 1.421 0 00-.501-2.796C20.142 8.15 14.137 9.012 11.21 9.42h-.007l-.009.002c-1.044.146-1.695.234-1.72.237a1.42 1.42 0 00.38 2.816c.009 0 .097-.013.253-.034.1 1.175.164 2.357.225 3.512.061 1.171.123 2.326.223 3.44-.294.276-.475.67-.453 1.104.026.511.32.942.737 1.171.456 2.72 1.367 5.029 3.453 6.443 1.467.994 3.362 1.43 5.778 1.303 2.074-.11 4.538-.638 7.436-1.578l-.001-.003a1.415 1.415 0 001.065-1.362z" fill="#fff"/></svg>